<svg version="1" xmlns="http://www.w3.org/2000/svg" width="682.667" height="682.667" viewBox="0 0 512.000000 512.000000"><path d="M250.7 33.6c-.1.1-6.1.5-13.3.8-7.2.4-14 .8-15.2 1.1-1.1.2-4.8.6-8.1 1-3.3.3-7 .8-8.3 1-1.3.3-3.9.8-5.8 1.1-1.9.4-4.4.9-5.5 1.1-1.1.2-3.1.6-4.4.9-7.6 1.6-24.9 6.2-26.2 7-.5.3-1.7.7-2.8.9-6.7 1.3-40.3 16.4-50.6 22.8C98.5 78.7 81.2 90.6 79 93c-.3.3-3.4 3-7 6-14.5 12.3-29.8 29.2-39.7 44-13.4 20-24.5 48-26.9 67.5-.1 1.1-.6 4.5-1 7.5-.5 3-.8 13.1-.8 22.5.1 15.6.5 21.6 1.9 28.5.2 1.4.7 4.1 1 6 1.7 10.6 7.3 26.6 14.5 41 7.9 16.2 17 29.5 30.7 44.9 1.8 2 3.3 4.3 3.3 5.2 0 2.6-14.2 29.8-21.4 40.8-8.1 12.5-11.5 17-19.8 26.3-8.9 10.1-10.1 12.3-10.4 19.6-.3 6.6 1.8 13.4 5.5 17.9 3.7 4.5 11.7 7.6 19.1 7.6 6.3-.1 27.4-1.4 28-1.8.3-.2 2.6-.6 5.1-.9 2.4-.3 5.5-.8 6.9-1.1 6.1-1.3 8.6-1.8 10-2 2.6-.3 10.1-2.6 20.8-6.1 9.8-3.2 37.1-15 38.2-16.5.3-.3 2.5-1.7 5-2.9 2.4-1.3 8.5-4.9 13.5-8.2 5.7-3.8 9.7-5.8 11-5.5 1.1.2 6.3 1.6 11.5 3 8.7 2.3 15.7 3.8 23.5 5.2 1.7.3 3.9.7 5.1.9 1.2.2 4.5.7 7.4 1.1 2.9.4 6.2.8 7.2 1 4.1.8 25 1.8 37.3 1.8 22.5 0 39.9-1.6 60.6-5.7 9.9-2 11.7-2.4 13.9-3.1 1-.3 2.8-.8 3.9-1 14.4-2.8 47.6-16.4 66.1-27.2 8.1-4.7 24.3-16 33.5-23.4 9.9-8 26.9-24.6 33.1-32.4 2.1-2.8 4.2-5.2 4.5-5.5 1.5-1.4 9.9-13.9 9.9-14.8 0-.6.4-1.2.9-1.4 1.3-.5 9.4-16 13.4-25.8 3.6-8.7 8.2-23.7 9.1-30 .3-1.9.8-4.6 1.1-6 2.7-12.1 2.7-43.5.2-59-5-30.2-17.9-58.3-38.1-83-6.1-7.5-24.3-26.2-28.3-29-1.9-1.4-10.3-8.1-14.8-11.8-1.1-1-6.1-4.3-11-7.6-5-3.2-10.1-6.6-11.5-7.5-4.3-2.9-26.1-13.7-35-17.4-4.7-1.9-13-4.8-18.5-6.6-5.5-1.7-11.5-3.6-13.3-4.2-1.9-.6-4.4-1.3-5.5-1.5-1.2-.2-4.2-.8-6.7-1.3-9.7-2.2-23.5-4.4-34.5-5.6-7-.8-40.3-2.3-40.8-1.9zM281 82.5c4.7.3 9.4.8 10.5.9 5.6.8 14.1 2 14.5 2.1.3.1 2.5.5 5 1s4.7.9 5 1c.3 0 1.6.5 3 .9 1.4.5 3.2 1 4 1.1 8.1.8 34.6 11 49.5 19 6.4 3.4 25.3 15.2 26.5 16.5.3.3 3.9 3.2 8 6.5 8.1 6.4 23 20.9 23 22.4 0 .5.6 1.1 1.3 1.4 2.1.8 12.3 15.8 17.4 25.7 4.6 8.9 10.8 24 9.8 24-.2 0 .2 1.8 1 4s1.4 4.3 1.4 4.5c-.1.3.2 2.2.5 4.3 1.4 8.8 1.7 12.3 1.6 23.2-.1 11.6-.4 16.4-1.4 21-.3 1.4-.8 3.8-1.2 5.5-.3 1.6-1.5 6.1-2.7 10-1.1 3.8-2.1 7.2-2.2 7.5-.9 2.8-8.6 19.1-9.5 20-.3.3-2.1 3-4 6s-3.7 5.7-4 6c-.3.3-1.8 2.3-3.5 4.5-4 5.4-22.9 24.5-24.2 24.5-.6 0-1.3.4-1.5.9-.5 1.3-16.8 13.5-22.5 16.7-2.6 1.6-5 3.1-5.3 3.4-.9.9-20.2 11.1-22 11.5-.3.1-1.8.7-3.5 1.4-13.2 5.5-32.7 11.6-43.4 13.6-1.4.3-3.7.7-5.1 1-1.4.3-4.5.8-7 1.1-2.5.3-5.3.8-6.3 1-9.7 1.8-50.6 2.5-62.2 1-2.7-.3-7-.8-9.5-1.1-3.9-.5-14.5-2.5-22-4.1-1.4-.3-3.6-.7-5-1-1.4-.3-4.5-1.2-7-1.9-2.5-.8-9.9-3.1-16.5-5.1-6.6-2.1-12.9-3.8-14-3.7-1.1 0-10.3 5.5-20.4 12.2-10.1 6.8-22.5 14.5-27.5 17.1-8.5 4.6-25.7 12-27.7 12-1.1 0 3.9-10.3 5.2-10.8.5-.2.9-.8.9-1.4 0-.6 1.3-3.8 2.9-7.2 5.6-11.8 8.8-19.1 10.1-23.1.7-2.2 1.5-4.5 1.9-5 .3-.6.6-1.2.6-1.5.1-1 2.8-8.5 3.4-9.5.3-.6.6-1.2.6-1.5.1-.3.7-2.2 1.4-4.3 1.3-3.8 1.2-4-2.2-7.5-8-8.5-10.5-11.2-16.7-18.2-8.7-9.8-8.1-9-11.6-13.5-13.5-17.6-23.3-39.4-25.9-57.5-.3-2.5-.8-5.3-1.1-6.3-.8-2.7-.8-22.5.1-28.7.4-3 .8-6.4.9-7.5.3-2.6 3.6-16.5 4.3-18.5.3-.8.7-2.1.9-2.9.8-4.3 13.2-26.8 18.8-34.1 14.2-18.9 34.8-37 56.6-49.7 11.9-7.1 29-14.9 40.5-18.7 14.8-4.9 21.5-6.6 35.5-9 12.2-2.2 14.9-2.5 24.7-3.2 4.8-.3 8.9-.7 9-.8.5-.5 30.2.2 38.3.9z"/><path d="M268.8 103.6c-.2.2-8 .5-17.3.6-18.7.3-20.7.9-22.5 6.4-1 3-1.6 167.4-.6 172 .7 3.4 2.5 5.7 7.4 9.4 2.6 1.9 4.9 3.7 5.2 4 .3.3 1.2.9 2.1 1.5 1.9 1.1 22.7 16.3 24.3 17.7.6.5 6.3 4.6 12.6 9.1 11.4 8.2 31.1 22.6 34 25 4.4 3.5 10.3 5.9 13.1 5.3 2.9-.6 8.9-5.5 8.9-7.4 0-.6.3-1.2.8-1.4.4-.2 1.6-1.7 2.8-3.3 1.1-1.7 4.6-6.7 7.8-11.3 9.5-13.7 10.6-19.1 4.8-24-2.5-2.2-17.5-13.1-23.2-17-2.7-1.8-28.9-20.6-30.5-21.9-.6-.4-3.3-2.4-6-4.3-2.8-1.9-5.1-3.8-5.3-4.2-.2-.4-1-.8-1.7-.8-1.2 0-1.4-11.4-1.4-71.8 0-39.4-.3-72.7-.5-74-1-4.7-1.7-5.9-3.9-7-2.4-1.3-10.4-3.2-10.9-2.6z"/></svg>